:SAMPLES-PER-SECOND 30
:FULLY-SPECIFIED
:DEGREES
668
root  53.1858 37.0668 1.224 26.5763 -84.9252 -30.4913
RightUpLeg  -22.2548 -4.83424 4.83422
RightLeg  29.1008 -1.3534 -1.06368
RightFoot  -3.65532 0.284366 -4.59043
RightToes  1.45519e-009 0 -3.6325e-017
Spine  8.0549 -1.95054 6.38424
Spine1  2.35255 -1.50688 3.33602
HEad  -1.58183 -19.9408 -6.02107
LeftShoulder1  -0.852365 5.61179 -34.2511
LeftArm  -2.48382 7.42035 -41.586
LeftForeArm  34.604 -10.3159 -8.27347
LeftHand  -0.17896 10.5535 -2.58492
RightShoulder  -1.25446 -6.72862 32.3352
RightArm  14.7174 -8.25589 41.2465
RightForeArm  22.6763 5.30593 7.19531
RightHand  -0.027094 1.95046 -0.601739
LeftUpLeg  6.37114 2.897 5.38807
LeftLeg  46.5656 -3.04677 -2.98729
LeftFoot  -3.42718 0.927215 -14.699
LeftToes  -2.53752e-010 -2.07034e-011 -2.70101e-011
669
root  52.0652 37.0839 1.16657 30.8655 -83.9266 -35.1261
RightUpLeg  -20.5329 -5.59579 5.80547
RightLeg  30.3357 -1.41837 -1.15357
RightFoot  -6.04514 0.180527 -4.76515
RightToes  1.45519e-009 0 -3.6325e-017
Spine  8.19364 -1.95393 8.70961
Spine1  2.62138 -0.936704 2.5419
HEad  -0.800551 -20.9297 -5.59139
LeftShoulder1  -0.689852 5.22632 -33.8302
LeftArm  -3.92506 8.38754 -41.6549
LeftForeArm  36.9334 -8.96016 -8.33546
LeftHand  -0.222607 10.9821 -3.24382
RightShoulder  -1.4219 -7.06169 33.422
RightArm  15.849 -6.95765 40.577
RightForeArm  21.4599 6.35408 7.59718
RightHand  -0.0140161 2.17118 -0.397406
LeftUpLeg  0.444564 0.867955 6.09178
LeftLeg  56.2188 -1.80026 -2.42386
LeftFoot  8.66492 1.66962 -9.46832
LeftToes  -2.53752e-010 -2.07034e-011 -2.70101e-011
670
root  50.8928 37.2631 1.08687 31.403 -83.9604 -36.4116
RightUpLeg  -17.5281 -5.86103 5.94703
RightLeg  30.188 -1.26535 -1.05528
RightFoot  -8.04999 0.079662 -4.66629
RightToes  1.45519e-009 0 -3.6325e-017
Spine  8.31785 -1.74607 9.21855
Spine1  3.24997 -0.544878 2.78972
HEad  0.0616366 -21.2026 -5.04337
LeftShoulder1  -0.892555 5.68903 -34.6627
LeftArm  -4.30043 8.98386 -40.9567
LeftForeArm  38.0502 -8.82147 -8.21261
LeftHand  -0.201964 10.2177 -3.34947
RightShoulder  -1.25525 -6.72737 32.4134
RightArm  16.578 -5.26681 41.9244
RightForeArm  21.2817 7.01596 7.9349
RightHand  -0.016503 1.68379 -0.420244
LeftUpLeg  -3.61556 0.0938208 6.41045
LeftLeg  62.3938 -1.46773 -2.47365
LeftFoot  8.03802 1.32611 -8.00931
LeftToes  -2.53752e-010 -2.07034e-011 -2.70101e-011
671
root  49.7273 37.5071 1.03138 31.1124 -84.7312 -36.4283
RightUpLeg  -14.6471 -5.59373 5.56459
RightLeg  29.2622 -1.05263 -0.894131
RightFoot  -9.54046 0.0094955 -4.70915
RightToes  1.45519e-009 0 -3.6325e-017
Spine  7.99916 -1.18216 9.72702
Spine1  3.5477 0.296263 1.81384
HEad  0.990696 -21.6003 -5.00598
LeftShoulder1  -0.775067 5.41379 -34.4076
LeftArm  -3.54544 10.2979 -40.7629
LeftForeArm  36.5907 -9.70847 -8.16185
LeftHand  -0.226847 11.1563 -3.19111
RightShoulder  -1.30645 -6.84621 32.5534
RightArm  17.943 -2.68722 42.4324
RightForeArm  20.7844 8.09624 8.2532
RightHand  -0.0503596 2.31347 -0.944771
LeftUpLeg  -7.85236 -0.288129 5.9302
LeftLeg  65.7693 -1.45827 -2.87275
LeftFoot  5.04807 0.925618 -6.65378
LeftToes  -2.53752e-010 -2.07034e-011 -2.70101e-011
672
root  48.5448 37.7824 1.01446 27.7654 -85.4707 -33.2883
RightUpLeg  -11.4872 -5.98833 4.80849
RightLeg  27.6518 -0.453449 -0.489639
RightFoot  -10.7989 -0.0501315 -4.73342
RightToes  1.45519e-009 0 -3.6325e-017
Spine  7.68827 -0.955779 10.0905
Spine1  3.40668 0.754421 0.673924
HEad  1.90464 -21.3986 -4.93906
LeftShoulder1  -0.849253 5.60835 -34.1494
LeftArm  -2.78842 11.7942 -40.5424
LeftForeArm  34.5029 -10.9184 -7.89167
LeftHand  -0.208968 11.273 -2.77887
RightShoulder  -1.22769 -6.69337 31.9642
RightArm  19.1631 -0.544403 43.7797
RightForeArm  19.4291 9.35505 8.29274
RightHand  -0.0555622 2.67215 -1.01118
LeftUpLeg  -11.6409 -0.685793 5.11841
LeftLeg  65.9143 -1.43658 -2.84667
LeftFoot  3.86719 0.699915 -5.41382
LeftToes  -2.53752e-010 -2.07034e-011 -2.70101e-011
673
root  47.3521 38.0393 0.981005 24.8349 -86.4449 -30.5842
RightUpLeg  -8.20281 -6.45781 3.88718
RightLeg  25.8691 0.842645 0.26055
RightFoot  -11.9009 -0.103571 -4.66769
RightToes  1.45519e-009 0 -3.6325e-017
Spine  7.24843 -0.373447 10.5166
Spine1  3.32041 1.56803 -0.791458
HEad  2.94579 -21.4778 -4.8461
LeftShoulder1  -0.699608 5.26064 -33.6675
LeftArm  -1.69686 13.0366 -40.3662
LeftForeArm  32.1283 -12.2161 -7.56583
LeftHand  -0.203167 11.2996 -2.66147
RightShoulder  -1.2829 -6.8368 31.9726
RightArm  21.0619 1.37986 44.4176
RightForeArm  17.0933 11.6409 7.81925
RightHand  0.0122965 2.97334 -0.000192193
LeftUpLeg  -14.7543 -0.863763 4.29401
LeftLeg  63.3998 -1.62025 -2.91883
LeftFoot  1.83634 0.496085 -4.38498
LeftToes  -2.53752e-010 -2.07034e-011 -2.70101e-011
674
root  46.1882 38.2324 0.95257 19.841 -87.5123 -25.743
RightUpLeg  -5.15924 -7.2706 2.84082
RightLeg  24.2544 2.43541 1.00853
RightFoot  -12.9192 -0.156434 -5.01317
RightToes  1.45519e-009 0 -3.6325e-017
Spine  7.42018 0.165647 10.7458
Spine1  2.49241 2.24794 -2.06354
HEad  3.51952 -21.3441 -5.16237
LeftShoulder1  -0.778372 5.45832 -33.6539
LeftArm  -0.0615025 13.8034 -39.9211
LeftForeArm  29.6892 -13.8146 -7.1219
LeftHand  -0.18602 11.7704 -2.11892
RightShoulder  -1.29705 -6.89338 31.7436
RightArm  24.5016 3.0051 44.8189
RightForeArm  10.3362 14.785 7.08005
RightHand  -0.177739 3.70975 -2.54912
LeftUpLeg  -17.268 -0.852847 3.42909
LeftLeg  58.5182 -1.84829 -2.72388
LeftFoot  -0.350124 0.361269 -3.74682
LeftToes  -2.53752e-010 -2.07034e-011 -2.70101e-011
675
root  45.0532 38.3962 0.924535 7.12561 -88.3838 -13.4225
RightUpLeg  -1.73179 -8.0397 1.67126
RightLeg  22.305 3.87646 1.53793
RightFoot  -13.8501 -0.207162 -5.20417
RightToes  1.45519e-009 0 -3.6325e-017
Spine  7.31171 0.667515 10.4412
Spine1  2.67795 2.70988 -2.824
HEad  3.31332 -21.108 -5.2185
LeftShoulder1  -0.75673 5.40819 -33.5645
LeftArm  1.09781 14.0793 -40.0097
LeftForeArm  27.6443 -15.15 -6.63417
LeftHand  -0.172162 11.6461 -1.91157
RightShoulder  -1.19262 -6.69587 30.8498
RightArm  26.5505 4.34021 45.6566
RightForeArm  5.60856 18.2965 5.73761
RightHand  -0.193094 4.58388 -2.54409
LeftUpLeg  -18.5294 -0.321816 2.68094
LeftLeg  51.1101 -2.12724 -2.41963
LeftFoot  -1.74203 0.346861 -4.01359
LeftToes  -2.53752e-010 -2.07034e-011 -2.70101e-011
676
root  43.9213 38.4969 0.903373 -16.5786 -88.8257 10.187
RightUpLeg  1.32384 -8.63483 0.616768
RightLeg  20.352 5.03203 1.87286
RightFoot  -14.8803 -0.255186 -5.00101
RightToes  1.45519e-009 0 -3.6325e-017
Spine  7.23224 0.957948 10.2748
Spine1  2.41863 2.9758 -4.00902
HEad  3.19716 -20.6387 -5.0801
LeftShoulder1  -0.727525 5.34606 -33.3281
LeftArm  1.41556 14.2389 -39.9199
LeftForeArm  26.5185 -15.8177 -6.31962
LeftHand  -0.115385 10.2827 -1.34699
RightShoulder  -1.15225 -6.60707 30.6016
RightArm  27.9865 5.83804 45.7658
RightForeArm  2.95829 21.6348 4.90485
RightHand  -0.21567 5.75234 -2.55618
LeftUpLeg  -19.1225 0.354621 1.93473
LeftLeg  41.3832 -1.9542 -1.46882
LeftFoot  -1.99428 0.389587 -4.61567
LeftToes  -2.53752e-010 -2.07034e-011 -2.70101e-011
677
root  42.8067 38.5684 0.870252 -49.9901 -89.0557 43.869
RightUpLeg  3.88782 -8.80439 -0.162288
RightLeg  18.4616 5.86169 1.97683
RightFoot  -15.65 -0.290663 -4.91233
RightToes  1.45519e-009 0 -3.6325e-017
Spine  6.81146 1.30338 9.58187
Spine1  2.36489 3.10329 -4.51492
HEad  2.46111 -20.0008 -5.42169
LeftShoulder1  -0.731181 5.33665 -33.718
LeftArm  1.47807 13.8662 -39.5524
LeftForeArm  25.8224 -15.9839 -6.23992
LeftHand  -0.109781 9.8421 -1.39238
RightShoulder  -1.10805 -6.51323 30.285
RightArm  27.3582 7.34483 45.8013
RightForeArm  2.74604 24.3513 5.02003
RightHand  -0.297844 6.66285 -3.21331
LeftUpLeg  -19.1361 2.0502 1.28295
LeftLeg  29.922 -2.0517 -0.925767
LeftFoot  -0.701052 0.457156 -4.85729
LeftToes  -2.53752e-010 -2.07034e-011 -2.70101e-011
678
root  41.6788 38.6104 0.842515 -76.4843 -89.0627 70.7339
RightUpLeg  6.40346 -8.70358 -0.629097
RightLeg  16.4057 6.40028 1.88011
RightFoot  -16.1853 -0.313965 -4.83349
RightToes  1.45519e-009 0 -3.6325e-017
Spine  6.55143 1.35584 9.553
Spine1  1.98116 3.25204 -6.28029
HEad  2.02587 -19.5282 -4.91203
LeftShoulder1  -0.690073 5.27237 -32.8645
LeftArm  1.30484 14.1295 -39.8348
LeftForeArm  25.678 -16.2156 -6.08854
LeftHand  -0.10672 9.70976 -1.41614
RightShoulder  -1.15462 -6.57484 31.0669
RightArm  26.704 8.76655 45.347
RightForeArm  4.16793 26.4324 5.46209
RightHand  -0.307489 6.28229 -3.39922
LeftUpLeg  -18.4787 3.5475 0.62677
LeftLeg  17.5793 -2.20169 -0.50974
LeftFoot  0.0826854 0.551596 -5.52297
LeftToes  -2.53752e-010 -2.07034e-011 -2.70101e-011
679
root  40.5364 38.6063 0.814589 -88.314 -88.883 82.6041
RightUpLeg  9.35774 -8.66102 -1.15606
RightLeg  14.2465 6.69982 1.73188
RightFoot  -16.8067 -0.339819 -4.735
RightToes  1.45519e-009 0 -3.6325e-017
Spine  6.21962 1.47274 8.11866
Spine1  2.42264 3.1402 -5.91145
HEad  1.51472 -19.0405 -4.92068
LeftShoulder1  -0.699398 5.2933 -32.9244
LeftArm  0.940309 14.0569 -40.122
LeftForeArm  25.4855 -16.2628 -6.02385
LeftHand  -0.116239 10.8764 -1.16686
RightShoulder  -1.10845 -6.50089 30.4534
RightArm  26.3647 9.92351 45.8909
RightForeArm  4.87602 27.2637 5.61714
RightHand  -0.361069 5.68348 -4.09843
LeftUpLeg  -17.1394 3.31917 0.392218
LeftLeg  6.1544 -1.02613 -0.375007
LeftFoot  0.0321453 0.584436 -5.87017
LeftToes  -2.53752e-010 -2.07034e-011 -2.70101e-011
